{
  "accessors": [
    {
      "bufferView": 2,
      "componentType": 5126,
      "count": 278,
      "max": [
        0.20843859016895294,
        0.20843859016895294,
        0.27187442779541016
      ],
      "min": [
        -0.20843859016895294,
        -0.20843859016895294,
        0
      ],
      "type": "VEC3"
    },
    {
      "bufferView": 2,
      "byteOffset": 3336,
      "componentType": 5126,
      "count": 278,
      "max": [
        0.98338264226913452,
        0.98338252305984497,
        1
      ],
      "min": [
        -0.98338252305984497,
        -0.98338252305984497,
        -1
      ],
      "type": "VEC3"
    },
    {
      "bufferView": 3,
      "componentType": 5126,
      "count": 278,
      "max": [
        0.98959976434707642,
        0.98959988355636597,
        0.35381913185119629,
        1
      ],
      "min": [
        -0.98959976434707642,
        -0.98959964513778687,
        -0.45462232828140259,
        1
      ],
      "type": "VEC4"
    },
    {
      "bufferView": 1,
      "componentType": 5126,
      "count": 278,
      "max": [
        0.97868072986602783,
        0.98446959257125854
      ],
      "min": [
        0.039921611547470093,
        0.0052108466625213623
      ],
      "type": "VEC2"
    },
    {
      "bufferView": 1,
      "byteOffset": 2224,
      "componentType": 5126,
      "count": 278,
      "max": [
        0.97868072986602783,
        0.98446959257125854
      ],
      "min": [
        0.039921611547470093,
        0.0052108466625213623
      ],
      "type": "VEC2"
    },
    {
      "bufferView": 1,
      "byteOffset": 4448,
      "componentType": 5126,
      "count": 278,
      "max": [
        0.97868072986602783,
        0.98446959257125854
      ],
      "min": [
        0.039921611547470093,
        0.0052108466625213623
      ],
      "type": "VEC2"
    },
    {
      "bufferView": 0,
      "componentType": 5125,
      "count": 816,
      "max": [
        277
      ],
      "min": [
        0
      ],
      "type": "SCALAR"
    },
    {
      "bufferView": 2,
      "byteOffset": 6672,
      "componentType": 5126,
      "count": 237,
      "max": [
        0.38210123777389526,
        0.38991272449493408,
        0.27980014681816101
      ],
      "min": [
        -0.39681768417358398,
        -0.40539994835853577,
        -0.051763355731964111
      ],
      "type": "VEC3"
    },
    {
      "bufferView": 2,
      "byteOffset": 9516,
      "componentType": 5126,
      "count": 237,
      "max": [
        0.96113991737365723,
        0.94471162557601929,
        0.99668049812316895
      ],
      "min": [
        -0.98146951198577881,
        -0.96557575464248657,
        0.13629859685897827
      ],
      "type": "VEC3"
    },
    {
      "bufferView": 3,
      "byteOffset": 4448,
      "componentType": 5126,
      "count": 237,
      "max": [
        0.99992883205413818,
        0.98287796974182129,
        0.77120316028594971,
        1
      ],
      "min": [
        -0.93767952919006348,
        -0.99748134613037109,
        -0.96762406826019287,
        -1
      ],
      "type": "VEC4"
    },
    {
      "bufferView": 1,
      "byteOffset": 6672,
      "componentType": 5126,
      "count": 237,
      "max": [
        0.98607116937637329,
        0.95938205718994141
      ],
      "min": [
        0.013928773812949657,
        0.013928773812949657
      ],
      "type": "VEC2"
    },
    {
      "bufferView": 0,
      "byteOffset": 3264,
      "componentType": 5125,
      "count": 780,
      "max": [
        236
      ],
      "min": [
        0
      ],
      "type": "SCALAR"
    },
    {
      "bufferView": 2,
      "byteOffset": 12360,
      "componentType": 5126,
      "count": 118,
      "max": [
        0.063514403998851776,
        0.1452648937702179,
        0.25499787926673889
      ],
      "min": [
        -0.077142186462879181,
        -0.065128356218338013,
        0.022521704435348511
      ],
      "type": "VEC3"
    },
    {
      "bufferView": 2,
      "byteOffset": 13776,
      "componentType": 5126,
      "count": 118,
      "max": [
        0.5465158224105835,
        0.62177193164825439,
        0.9854854941368103
      ],
      "min": [
        -0.75157105922698975,
        -0.97542798519134521,
        0.22031897306442261
      ],
      "type": "VEC3"
    },
    {
      "bufferView": 3,
      "byteOffset": 8240,
      "componentType": 5126,
      "count": 118,
      "max": [
        1,
        0.77050375938415527,
        2.6906109269475564e-06,
        1
      ],
      "min": [
        -1,
        -0.77050137519836426,
        -4.2470428525120951e-06,
        1
      ],
      "type": "VEC4"
    },
    {
      "bufferView": 1,
      "byteOffset": 8568,
      "componentType": 5126,
      "count": 118,
      "max": [
        0.98441970348358154,
        0.98504394292831421
      ],
      "min": [
        0.70223093032836914,
        0.43860450387001038
      ],
      "type": "VEC2"
    },
    {
      "bufferView": 0,
      "byteOffset": 6384,
      "componentType": 5125,
      "count": 216,
      "max": [
        117
      ],
      "min": [
        0
      ],
      "type": "SCALAR"
    }
  ],
  "asset": {
    "extras": {
      "author": "Agustín Hönnun (https://sketchfab.com/Agustin_Honnun)",
      "license": "CC-BY-4.0 (http://creativecommons.org/licenses/by/4.0/)",
      "source": "https://sketchfab.com/3d-models/stylized-flower-pot-2f0507e4c4b342e286e3dfde052508b6",
      "title": "Stylized Flower Pot"
    },
    "generator": "Sketchfab-9.66.0",
    "version": "2.0"
  },
  "bufferViews": [
    {
      "buffer": 0,
      "byteLength": 7248,
      "byteOffset": 0,
      "name": "floatBufferViews",
      "target": 34963
    },
    {
      "buffer": 0,
      "byteLength": 9512,
      "byteOffset": 7248,
      "byteStride": 8,
      "name": "floatBufferViews",
      "target": 34962
    },
    {
      "buffer": 0,
      "byteLength": 15192,
      "byteOffset": 16760,
      "byteStride": 12,
      "name": "floatBufferViews",
      "target": 34962
    },
    {
      "buffer": 0,
      "byteLength": 10128,
      "byteOffset": 31952,
      "byteStride": 16,
      "name": "floatBufferViews",
      "target": 34962
    }
  ],
  "buffers": [
    {
      "byteLength": 42080,
      "uri": "scene.bin"
    }
  ],
  "images": [
    {
      "uri": "textures/Plantpot_MAT_baseColor.png"
    },
    {
      "uri": "textures/Plantpot_MAT_metallicRoughness.png"
    },
    {
      "uri": "textures/Plantpot_MAT_normal.png"
    },
    {
      "uri": "textures/Foliage_MAT_baseColor.png"
    },
    {
      "uri": "textures/Foliage_MAT_metallicRoughness.png"
    },
    {
      "uri": "textures/Foliage_MAT_normal.png"
    }
  ],
  "materials": [
    {
      "doubleSided": false,
      "name": "Plantpot_MAT",
      "normalTexture": {
        "index": 2,
        "scale": 1,
        "texCoord": 0
      },
      "pbrMetallicRoughness": {
        "baseColorFactor": [
          1,
          1,
          1,
          1
        ],
        "baseColorTexture": {
          "index": 0,
          "texCoord": 0
        },
        "metallicFactor": 1,
        "metallicRoughnessTexture": {
          "index": 1,
          "texCoord": 0
        },
        "roughnessFactor": 1
      }
    },
    {
      "alphaMode": "BLEND",
      "doubleSided": true,
      "name": "Foliage_MAT",
      "normalTexture": {
        "index": 5,
        "scale": 1,
        "texCoord": 0
      },
      "pbrMetallicRoughness": {
        "baseColorFactor": [
          1,
          1,
          1,
          1
        ],
        "baseColorTexture": {
          "index": 3,
          "texCoord": 0
        },
        "metallicFactor": 1,
        "metallicRoughnessTexture": {
          "index": 4,
          "texCoord": 0
        },
        "roughnessFactor": 1
      }
    }
  ],
  "meshes": [
    {
      "name": "FlowerPot_Plantpot_MAT_0",
      "primitives": [
        {
          "attributes": {
            "NORMAL": 1,
            "POSITION": 0,
            "TANGENT": 2,
            "TEXCOORD_0": 3,
            "TEXCOORD_1": 4,
            "TEXCOORD_2": 5
          },
          "indices": 6,
          "material": 0,
          "mode": 4
        }
      ]
    },
    {
      "name": "Plants_Foliage_MAT_0",
      "primitives": [
        {
          "attributes": {
            "NORMAL": 8,
            "POSITION": 7,
            "TANGENT": 9,
            "TEXCOORD_0": 10
          },
          "indices": 11,
          "material": 1,
          "mode": 4
        }
      ]
    },
    {
      "name": "Flowers_Foliage_MAT_0",
      "primitives": [
        {
          "attributes": {
            "NORMAL": 13,
            "POSITION": 12,
            "TANGENT": 14,
            "TEXCOORD_0": 15
          },
          "indices": 16,
          "material": 1,
          "mode": 4
        }
      ]
    }
  ],
  "nodes": [
    {
      "children": [
        1
      ],
      "name": "RootNode (gltf orientation matrix)",
      "rotation": [
        -0.70710678118654746,
        -0,
        -0,
        0.70710678118654757
      ]
    },
    {
      "children": [
        2
      ],
      "matrix": [
        0.010750280693173409,
        0,
        0,
        0,
        0,
        0.010750280693173409,
        0,
        0,
        0,
        0,
        0.010750280693173409,
        0,
        0,
        0,
        0,
        1
      ],
      "name": "RootNode (model correction matrix)"
    },
    {
      "children": [
        3
      ],
      "matrix": [
        1,
        0,
        0,
        0,
        0,
        0,
        1,
        0,
        0,
        -1,
        0,
        0,
        0,
        0,
        0,
        1
      ],
      "name": "b9f3e21a4ef9447f96443e06ffce729b.fbx"
    },
    {
      "children": [
        4,
        6,
        8
      ],
      "name": "RootNode"
    },
    {
      "children": [
        5
      ],
      "matrix": [
        100,
        0,
        0,
        0,
        0,
        -1.6292067939183141e-05,
        -99.999999999998678,
        0,
        0,
        99.999999999998678,
        -1.6292067939183141e-05,
        0,
        0,
        0,
        0,
        1
      ],
      "name": "FlowerPot"
    },
    {
      "mesh": 0,
      "name": "FlowerPot_Plantpot_MAT_0"
    },
    {
      "children": [
        7
      ],
      "matrix": [
        100,
        0,
        0,
        0,
        0,
        -1.6292067939183141e-05,
        -99.999999999998678,
        0,
        0,
        99.999999999998678,
        -1.6292067939183141e-05,
        0,
        7.3528360644559143e-07,
        20.844972610473633,
        2.5222593080798106e-07,
        1
      ],
      "name": "Plants"
    },
    {
      "mesh": 1,
      "name": "Plants_Foliage_MAT_0"
    },
    {
      "children": [
        9
      ],
      "matrix": [
        100,
        0,
        0,
        0,
        0,
        -1.6292067939183141e-05,
        -99.999999999998678,
        0,
        0,
        99.999999999998678,
        -1.6292067939183141e-05,
        0,
        7.3528360644559143e-07,
        20.844972610473633,
        2.5222593080798106e-07,
        1
      ],
      "name": "Flowers"
    },
    {
      "mesh": 2,
      "name": "Flowers_Foliage_MAT_0"
    }
  ],
  "samplers": [
    {
      "magFilter": 9729,
      "minFilter": 9987,
      "wrapS": 10497,
      "wrapT": 10497
    }
  ],
  "scene": 0,
  "scenes": [
    {
      "name": "OSG_Scene",
      "nodes": [
        0
      ]
    }
  ],
  "textures": [
    {
      "sampler": 0,
      "source": 0
    },
    {
      "sampler": 0,
      "source": 1
    },
    {
      "sampler": 0,
      "source": 2
    },
    {
      "sampler": 0,
      "source": 3
    },
    {
      "sampler": 0,
      "source": 4
    },
    {
      "sampler": 0,
      "source": 5
    }
  ]
}

